<mxfile host="app.diagrams.net" agent="Mozilla/5.0 (Windows NT 10.0; Win64; x64) AppleWebKit/537.36 (KHTML, like Gecko) Chrome/135.0.0.0 Safari/537.36 Edg/135.0.0.0" version="26.2.14">
  <diagram name="Page-1" id="3mO5y0MYO-593MkWEzqs">
    <mxGraphModel dx="1034" dy="570" grid="1" gridSize="10" guides="1" tooltips="1" connect="1" arrows="1" fold="1" page="1" pageScale="1" pageWidth="850" pageHeight="1100" math="0" shadow="0">
      <root>
        <mxCell id="0" />
        <mxCell id="1" parent="0" />
        <mxCell id="1eN6Rc1T9GswPoAEd11h-26" style="edgeStyle=orthogonalEdgeStyle;shape=link;rounded=0;orthogonalLoop=1;jettySize=auto;html=1;exitX=1;exitY=0.5;exitDx=0;exitDy=0;entryX=0.5;entryY=0;entryDx=0;entryDy=0;" edge="1" parent="1" source="1eN6Rc1T9GswPoAEd11h-2" target="1eN6Rc1T9GswPoAEd11h-12">
          <mxGeometry relative="1" as="geometry" />
        </mxCell>
        <mxCell id="1eN6Rc1T9GswPoAEd11h-2" value="&lt;font style=&quot;font-size: 18px;&quot;&gt;WLC&lt;/font&gt;" style="whiteSpace=wrap;html=1;aspect=fixed;" vertex="1" parent="1">
          <mxGeometry x="360" y="230" width="90" height="90" as="geometry" />
        </mxCell>
        <mxCell id="1eN6Rc1T9GswPoAEd11h-28" style="edgeStyle=orthogonalEdgeStyle;shape=link;rounded=0;orthogonalLoop=1;jettySize=auto;html=1;exitX=0.5;exitY=1;exitDx=0;exitDy=0;entryX=0;entryY=0.5;entryDx=0;entryDy=0;" edge="1" parent="1" source="1eN6Rc1T9GswPoAEd11h-3" target="1eN6Rc1T9GswPoAEd11h-7">
          <mxGeometry relative="1" as="geometry" />
        </mxCell>
        <mxCell id="1eN6Rc1T9GswPoAEd11h-29" style="edgeStyle=orthogonalEdgeStyle;shape=link;rounded=0;orthogonalLoop=1;jettySize=auto;html=1;exitX=0.5;exitY=1;exitDx=0;exitDy=0;entryX=1;entryY=0.5;entryDx=0;entryDy=0;" edge="1" parent="1" source="1eN6Rc1T9GswPoAEd11h-3" target="1eN6Rc1T9GswPoAEd11h-5">
          <mxGeometry relative="1" as="geometry" />
        </mxCell>
        <mxCell id="1eN6Rc1T9GswPoAEd11h-3" value="&lt;font style=&quot;font-size: 18px;&quot;&gt;Main Switch&lt;/font&gt;" style="whiteSpace=wrap;html=1;aspect=fixed;" vertex="1" parent="1">
          <mxGeometry x="355" y="460" width="100" height="100" as="geometry" />
        </mxCell>
        <mxCell id="1eN6Rc1T9GswPoAEd11h-5" value="AP" style="ellipse;whiteSpace=wrap;html=1;aspect=fixed;" vertex="1" parent="1">
          <mxGeometry x="200" y="580" width="80" height="80" as="geometry" />
        </mxCell>
        <mxCell id="1eN6Rc1T9GswPoAEd11h-7" value="AP" style="ellipse;whiteSpace=wrap;html=1;aspect=fixed;" vertex="1" parent="1">
          <mxGeometry x="540" y="580" width="80" height="80" as="geometry" />
        </mxCell>
        <mxCell id="1eN6Rc1T9GswPoAEd11h-27" style="edgeStyle=orthogonalEdgeStyle;shape=link;rounded=0;orthogonalLoop=1;jettySize=auto;html=1;exitX=0.5;exitY=1;exitDx=0;exitDy=0;entryX=0.5;entryY=0;entryDx=0;entryDy=0;" edge="1" parent="1" source="1eN6Rc1T9GswPoAEd11h-12" target="1eN6Rc1T9GswPoAEd11h-3">
          <mxGeometry relative="1" as="geometry" />
        </mxCell>
        <mxCell id="1eN6Rc1T9GswPoAEd11h-31" style="edgeStyle=orthogonalEdgeStyle;shape=link;rounded=0;orthogonalLoop=1;jettySize=auto;html=1;exitX=1;exitY=0.5;exitDx=0;exitDy=0;entryX=0.5;entryY=0;entryDx=0;entryDy=0;" edge="1" parent="1" source="1eN6Rc1T9GswPoAEd11h-12" target="1eN6Rc1T9GswPoAEd11h-16">
          <mxGeometry relative="1" as="geometry" />
        </mxCell>
        <mxCell id="1eN6Rc1T9GswPoAEd11h-12" value="&lt;font style=&quot;font-size: 14px;&quot;&gt;Port mirrored switch&lt;/font&gt;" style="rounded=0;whiteSpace=wrap;html=1;" vertex="1" parent="1">
          <mxGeometry x="570" y="360" width="120" height="60" as="geometry" />
        </mxCell>
        <mxCell id="1eN6Rc1T9GswPoAEd11h-16" value="&lt;font style=&quot;font-size: 14px;&quot;&gt;Edge device with all traffic on network&lt;/font&gt;" style="rounded=1;whiteSpace=wrap;html=1;" vertex="1" parent="1">
          <mxGeometry x="680" y="510" width="120" height="80" as="geometry" />
        </mxCell>
        <mxCell id="1eN6Rc1T9GswPoAEd11h-25" style="edgeStyle=orthogonalEdgeStyle;shape=link;rounded=0;orthogonalLoop=1;jettySize=auto;html=1;exitX=0.5;exitY=1;exitDx=0;exitDy=0;" edge="1" parent="1" source="1eN6Rc1T9GswPoAEd11h-18" target="1eN6Rc1T9GswPoAEd11h-2">
          <mxGeometry relative="1" as="geometry" />
        </mxCell>
        <mxCell id="1eN6Rc1T9GswPoAEd11h-18" value="&lt;font style=&quot;font-size: 14px;&quot;&gt;Router/gateway&lt;/font&gt;" style="ellipse;whiteSpace=wrap;html=1;" vertex="1" parent="1">
          <mxGeometry x="345" y="80" width="120" height="80" as="geometry" />
        </mxCell>
        <mxCell id="1eN6Rc1T9GswPoAEd11h-20" value="" style="endArrow=classic;html=1;rounded=0;" edge="1" parent="1">
          <mxGeometry width="50" height="50" relative="1" as="geometry">
            <mxPoint x="170" y="610" as="sourcePoint" />
            <mxPoint x="170" y="490" as="targetPoint" />
          </mxGeometry>
        </mxCell>
        <mxCell id="1eN6Rc1T9GswPoAEd11h-30" value="" style="endArrow=classic;html=1;rounded=0;" edge="1" parent="1">
          <mxGeometry width="50" height="50" relative="1" as="geometry">
            <mxPoint x="345" y="389.5" as="sourcePoint" />
            <mxPoint x="505" y="389.5" as="targetPoint" />
          </mxGeometry>
        </mxCell>
        <mxCell id="1eN6Rc1T9GswPoAEd11h-32" value="" style="endArrow=classic;html=1;rounded=0;" edge="1" parent="1">
          <mxGeometry width="50" height="50" relative="1" as="geometry">
            <mxPoint x="820" y="370" as="sourcePoint" />
            <mxPoint x="820" y="510" as="targetPoint" />
          </mxGeometry>
        </mxCell>
        <mxCell id="1eN6Rc1T9GswPoAEd11h-33" value="" style="endArrow=classic;html=1;rounded=0;" edge="1" parent="1">
          <mxGeometry width="50" height="50" relative="1" as="geometry">
            <mxPoint x="530" y="90" as="sourcePoint" />
            <mxPoint x="530" y="210" as="targetPoint" />
          </mxGeometry>
        </mxCell>
        <mxCell id="1eN6Rc1T9GswPoAEd11h-34" value="" style="endArrow=classic;html=1;rounded=0;" edge="1" parent="1">
          <mxGeometry width="50" height="50" relative="1" as="geometry">
            <mxPoint x="550" y="240" as="sourcePoint" />
            <mxPoint x="650" y="240" as="targetPoint" />
          </mxGeometry>
        </mxCell>
        <mxCell id="1eN6Rc1T9GswPoAEd11h-35" value="Employee 1" style="rhombus;whiteSpace=wrap;html=1;" vertex="1" parent="1">
          <mxGeometry x="195" y="720" width="90" height="80" as="geometry" />
        </mxCell>
        <mxCell id="1eN6Rc1T9GswPoAEd11h-36" value="Employee 2" style="rhombus;whiteSpace=wrap;html=1;" vertex="1" parent="1">
          <mxGeometry x="540" y="720" width="80" height="80" as="geometry" />
        </mxCell>
        <mxCell id="1eN6Rc1T9GswPoAEd11h-37" value="" style="endArrow=none;dashed=1;html=1;dashPattern=1 3;strokeWidth=2;rounded=0;entryX=0.5;entryY=1;entryDx=0;entryDy=0;exitX=0.5;exitY=0;exitDx=0;exitDy=0;" edge="1" parent="1" source="1eN6Rc1T9GswPoAEd11h-35" target="1eN6Rc1T9GswPoAEd11h-5">
          <mxGeometry width="50" height="50" relative="1" as="geometry">
            <mxPoint x="270" y="720" as="sourcePoint" />
            <mxPoint x="320" y="670" as="targetPoint" />
          </mxGeometry>
        </mxCell>
        <mxCell id="1eN6Rc1T9GswPoAEd11h-38" value="" style="endArrow=none;dashed=1;html=1;dashPattern=1 3;strokeWidth=2;rounded=0;entryX=0.5;entryY=1;entryDx=0;entryDy=0;exitX=0.5;exitY=0;exitDx=0;exitDy=0;" edge="1" parent="1" source="1eN6Rc1T9GswPoAEd11h-36" target="1eN6Rc1T9GswPoAEd11h-7">
          <mxGeometry width="50" height="50" relative="1" as="geometry">
            <mxPoint x="640" y="720" as="sourcePoint" />
            <mxPoint x="690" y="670" as="targetPoint" />
          </mxGeometry>
        </mxCell>
      </root>
    </mxGraphModel>
  </diagram>
</mxfile>
